name X:\Health\ResearchProjects\ASalo\Sprinting 2016\NHaralabidis\Running_implicit_muscleDriven\Running_implicit_muscleDriven\Study2\ExperimentalData\IK_Splined\twoSteps_IK_BSplines_60_meshInts_study2_p02_s_01_lowIK_modROI.mot
datacolumns 38
datarows 15
range 0.32800000 0.35448663
endheader
                time	         pelvis_tilt	         pelvis_list	     pelvis_rotation	           pelvis_tx	           pelvis_ty	           pelvis_tz	       hip_flexion_r	     hip_adduction_r	      hip_rotation_r	        knee_angle_r	       ankle_angle_r	    subtalar_angle_r	         mtp_angle_r	       hip_flexion_l	     hip_adduction_l	      hip_rotation_l	        knee_angle_l	       ankle_angle_l	    subtalar_angle_l	         mtp_angle_l	    lumbar_extension	      lumbar_bending	     lumbar_rotation	          arm_flex_r	           arm_add_r	           arm_rot_r	        elbow_flex_r	           pro_sup_r	        wrist_flex_r	         wrist_dev_r	          arm_flex_l	           arm_add_l	           arm_rot_l	        elbow_flex_l	           pro_sup_l	        wrist_flex_l	         wrist_dev_l	
          0.32800000	        -23.90052722	         -6.38125675	          9.47269064	         -1.36069498	          0.83287357	          0.29607642	         79.48144622	         -5.90858362	         -3.04590206	        -86.15003828	          5.87197484	        -23.60846497	          0.16501293	         -5.33480908	         -4.90568395	         10.00057144	        -37.53003997	        -33.62128368	          6.79320088	          6.79100088	        -21.33537874	         17.03579027	         -0.33972852	        -65.85143118	          7.89276837	        -31.52381644	         65.09691682	         72.02298076	         -3.60626079	          8.11965805	         31.23429425	         -6.62561649	         22.80669572	        139.49908088	         49.04490527	         -6.15649467	          5.23842427	
          0.32912670	        -23.74631766	         -6.19680987	          9.36337613	         -1.35508207	          0.83363270	          0.29611151	         78.67753215	         -5.89090556	         -2.95276302	        -85.71070544	          5.68986923	        -23.46670672	          0.30976119	         -5.07839241	         -4.65062765	          9.54283027	        -38.35777862	        -33.64831056	          7.28194372	          7.07918142	        -21.63602965	         16.89320648	         -0.47760616	        -65.19418211	          7.43537568	        -31.30053719	         65.32476502	         71.99786679	         -3.57489591	          8.16328069	         30.01867915	         -6.84998231	         22.20214092	        138.90089361	         49.04683757	         -6.28458679	          5.30955190	
          0.33268663	        -23.26094425	         -5.63854777	          9.02357129	         -1.33735168	          0.83599127	          0.29624878	         76.11308711	         -5.84242102	         -2.69147330	        -84.28722189	          5.18882122	        -22.98926096	          0.83040506	         -4.23721285	         -3.89720511	          8.06291764	        -41.01356404	        -33.70323605	          8.44475896	          7.92447968	        -22.57414937	         16.45554098	         -0.92212479	        -63.10185253	          5.98100321	        -30.54813926	         66.06196354	         71.92363980	         -3.47668085	          8.30052960	         26.19043119	         -7.51997940	         20.20732874	        136.91057085	         49.01855007	         -6.68919026	          5.53999025	
          0.33526667	        -22.90917237	         -5.23395017	          8.77729948	         -1.32450167	          0.83770063	          0.29634827	         74.25451873	         -5.80728210	         -2.50210492	        -83.25555948	          4.82568925	        -22.64323459	          1.20773903	         -3.62757228	         -3.35116599	          6.99035855	        -42.93833090	        -33.74304302	          9.28750333	          8.53710526	        -23.25404682	         16.13834516	         -1.24428739	        -61.58544739	          4.92695422	        -30.00284272	         66.59624439	         71.86984418	         -3.40549999	          8.40000004	         23.41592812	         -8.00555636	         18.76159884	        135.46809463	         48.99804884	         -6.98242455	          5.70699927	
          0.33526667	        -22.90917237	         -5.23395017	          8.77729948	         -1.32450167	          0.83770063	          0.29634827	         74.25451873	         -5.80728210	         -2.50210492	        -83.25555948	          4.82568925	        -22.64323459	          1.20773903	         -3.62757228	         -3.35116599	          6.99035855	        -42.93833090	        -33.74304302	          9.28750333	          8.53710526	        -23.25404682	         16.13834516	         -1.24428739	        -61.58544739	          4.92695422	        -30.00284272	         66.59624439	         71.86984418	         -3.40549999	          8.40000004	         23.41592812	         -8.00555636	         18.76159884	        135.46809463	         48.99804884	         -6.98242455	          5.70699927	
          0.33639337	        -22.75450342	         -5.07683984	          8.68409206	         -1.31888866	          0.83840306	          0.29643742	         73.40672702	         -5.79453926	         -2.45287764	        -82.79329265	          4.86478500	        -22.45089923	          1.39019899	         -3.34192513	         -3.15890578	          6.51302616	        -43.80940963	        -33.70077120	          9.30672015	          8.70013709	        -23.53642823	         16.00507798	         -1.39496424	        -60.89646474	          4.48016401	        -29.72097394	         66.81552433	         71.86271817	         -3.37564236	          8.44137373	         22.24412485	         -8.18754090	         18.11032593	        134.71518298	         48.95313603	         -7.10347455	          5.78311245	
          0.33995330	        -22.26445308	         -4.60578746	          8.40816377	         -1.30115202	          0.84056542	          0.29677827	         70.68123423	         -5.75764698	         -2.34068150	        -81.31751655	          5.24429138	        -21.78981323	          1.98959002	         -2.41425316	         -2.61126270	          4.99326717	        -46.60119984	        -33.48995867	          8.91574634	          9.07992626	        -24.40982223	         15.59080974	         -1.88397580	        -58.68489830	          3.08598885	        -28.77374602	         67.49017722	         71.86139678	         -3.28289348	          8.56942351	         18.59327504	         -8.72360227	         16.02677187	        132.17703516	         48.76466364	         -7.47687123	          6.02771728	
          0.34253333	        -21.90954064	         -4.26561972	          8.20885639	         -1.28829798	          0.84212924	          0.29702887	         68.70428284	         -5.73074251	         -2.26112408	        -80.24767713	          5.53229870	        -21.30837307	          2.42400741	         -1.74038538	         -2.21720850	          3.89168891	        -48.62622197	        -33.33333757	          8.61175140	          9.34803022	        -25.04146854	         15.29067913	         -2.23860816	        -57.08016337	          2.07686366	        -28.08472604	         67.97810538	         71.86142449	         -3.21580004	          8.66206448	         15.95086590	         -9.11025986	         14.51627763	        130.32909215	         48.62607271	         -7.74699368	          6.20514668	
          0.34253333	        -21.90954064	         -4.26561972	          8.20885639	         -1.28829798	          0.84212924	          0.29702887	         68.70428284	         -5.73074251	         -2.26112408	        -80.24767713	          5.53229870	        -21.30837307	          2.42400741	         -1.74038538	         -2.21720850	          3.89168891	        -48.62622197	        -33.33333757	          8.61175140	          9.34803022	        -25.04146854	         15.29067913	         -2.23860816	        -57.08016337	          2.07686366	        -28.08472604	         67.97810538	         71.86142449	         -3.21580004	          8.66206448	         15.95086590	         -9.11025986	         14.51627763	        130.32909215	         48.62607271	         -7.74699368	          6.20514668	
          0.34366004	        -21.76135555	         -4.15054731	          8.14013520	         -1.28269836	          0.84272092	          0.29723588	         67.79545908	         -5.71442983	         -2.27437437	        -79.77287303	          6.01230407	        -21.03468559	          2.61404051	         -1.40395892	         -2.12293730	          3.40678286	        -49.55664010	        -33.16011421	          7.91497198	          9.26981408	        -25.28064732	         15.16256830	         -2.39959059	        -56.32708156	          1.67159881	        -27.71492421	         68.16322527	         71.88836553	         -3.18993902	          8.69808164	         14.89327168	         -9.22855208	         13.84436999	        129.29162209	         48.51098782	         -7.85143187	          6.28682016	
          0.34721996	        -21.29315117	         -3.78696546	          7.92300428	         -1.26500585	          0.84459040	          0.29788995	         64.92394698	         -5.66288842	         -2.31623988	        -78.27268591	          7.52892510	        -20.16994489	          3.21446753	         -0.34098862	         -1.82507882	          1.87467766	        -52.49638158	        -32.61279913	          5.71343347	          9.02268302	        -26.03635463	         14.75779037	         -2.90822938	        -53.94765047	          0.39112729	        -26.54650139	         68.74812854	         71.97348821	         -3.10822876	          8.81188117	         11.55170568	         -9.60230722	         11.72141614	        126.01364018	         48.14736654	         -8.18141392	          6.54487498	
          0.34980000	        -20.96499342	         -3.53365304	          7.76197160	         -1.25220453	          0.84590627	          0.29840414	         62.85021149	         -5.61658851	         -2.34995080	        -77.18958842	          8.70541482	        -19.53655545	          3.63196661	          0.45258736	         -1.63032434	          0.76814417	        -54.63569541	        -32.19328575	          3.99205037	          8.78564902	        -26.56324855	         14.46121286	         -3.26723661	        -52.20573518	         -0.52123552	        -25.68645072	         69.16900671	         72.03827504	         -3.05116949	          8.89266742	          9.17644963	         -9.85827890	         10.18411460	        123.56270490	         47.87670356	         -8.41726930	          6.73243417	
          0.34980000	        -20.96499342	         -3.53365304	          7.76197160	         -1.25220453	          0.84590627	          0.29840414	         62.85021149	         -5.61658851	         -2.34995080	        -77.18958842	          8.70541482	        -19.53655545	          3.63196661	          0.45258736	         -1.63032434	          0.76814417	        -54.63569541	        -32.19328575	          3.99205037	          8.78564902	        -26.56324855	         14.46121286	         -3.26723661	        -52.20573518	         -0.52123552	        -25.68645072	         69.16900671	         72.03827504	         -3.05116949	          8.89266742	          9.17644963	         -9.85827890	         10.18411460	        123.56270490	         47.87670356	         -8.41726930	          6.73243417	
          0.35092670	        -20.84760479	         -3.44667729	          7.68313790	         -1.24666348	          0.84639038	          0.29872184	         61.96172811	         -5.57561452	         -2.37248915	        -76.72624018	          9.39859590	        -19.24447154	          3.77332147	          0.85295494	         -1.59426890	          0.29385715	        -55.59023929	        -31.95707001	          2.94838092	          8.54773798	        -26.74508231	         14.32423389	         -3.40168149	        -51.40458856	         -0.88334952	        -25.28014237	         69.34578037	         72.07374737	         -3.03126274	          8.92402728	          8.24712182	         -9.93547934	          9.51578638	        122.31782559	         47.74196159	         -8.51261704	          6.81558328	
          0.35448663	        -20.47670463	         -3.17186943	          7.43405560	         -1.22915600	          0.84791996	          0.29972567	         59.15448331	         -5.44615345	         -2.44370112	        -75.26224887	         11.58876515	        -18.32160562	          4.21994512	          2.11795305	         -1.48034844	         -1.20469625	        -58.60620828	        -31.21072471	         -0.34918853	          7.79603620	        -27.31960276	         13.89143627	         -3.82647244	        -48.87329228	         -2.02748195	        -23.99637383	         69.90431298	         72.18582545	         -2.96836553	          9.02311162	          5.31082529	        -10.17940123	          7.40414203	        118.38451514	         47.31623196	         -8.81387701	          7.07830055	
